<svg width="32" height="17" viewBox="0 0 32 17" fill="none" xmlns="http://www.w3.org/2000/svg">
<path d="M31.3547 5.88513C30.7448 4.44797 29.7318 3.22842 28.4546 2.36518C27.8191 1.93615 27.1159 1.59489 26.3612 1.36218C25.6116 1.12441 24.8105 1.00025 23.9837 1.00025C22.9236 1.00025 21.9054 1.20724 20.9751 1.58484C20.8973 1.61555 20.8252 1.64639 20.753 1.68272C19.9155 2.0497 19.1503 2.56662 18.494 3.18192C18.2821 3.38336 18.0806 3.59534 17.8787 3.83311C17.5223 4.24148 17.1553 4.71196 16.7985 5.18743C16.7262 5.28531 16.6485 5.3888 16.5764 5.48731C16.38 5.75585 14.5032 8.50594 14.1725 8.99708C14.007 9.2449 13.8106 9.52405 13.5986 9.82898C13.5521 9.89615 13.5007 9.96881 13.4492 10.041C13.0974 10.5423 12.7046 11.0698 12.3427 11.5352C12.162 11.7674 11.9807 11.9844 11.8258 12.1656C11.6658 12.3514 11.5209 12.5014 11.4174 12.5997C10.9732 13.0182 10.4507 13.3595 9.8773 13.5922C9.30338 13.8249 8.67791 13.9541 8.01611 13.9541C7.56129 13.9541 7.12209 13.8919 6.70873 13.7784C6.49674 13.7214 6.28975 13.6492 6.08831 13.5614C5.19891 13.1888 4.43917 12.5583 3.90664 11.7673C3.6381 11.3696 3.42605 10.9354 3.28123 10.47C3.14184 10.0046 3.05913 9.51394 3.05913 8.99702C3.05913 8.3095 3.19896 7.66336 3.44677 7.06866C3.82437 6.17976 4.45484 5.42514 5.24585 4.88749C5.64361 4.61845 6.0777 4.41195 6.54312 4.26707C7.00804 4.12219 7.49918 4.03998 8.01611 4.03998C8.67791 4.04497 9.30338 4.16919 9.8773 4.40141C10.4508 4.63911 10.9732 4.97532 11.4174 5.3938C11.5209 5.49224 11.6658 5.64717 11.8258 5.82838C12.1049 6.15398 12.4356 6.57246 12.7667 7.01217C12.8959 7.18782 13.0251 7.36348 13.1544 7.54419C13.6506 6.82084 14.5188 5.54923 14.9736 4.89248C14.8964 4.78899 14.8187 4.68605 14.7414 4.58256C14.5344 4.31851 14.3275 4.06563 14.121 3.83292C13.914 3.59516 13.7177 3.38317 13.5057 3.18173C12.7924 2.50931 11.95 1.96168 11.0246 1.58459C10.0943 1.20699 9.07567 1 8.01611 1C6.91516 1 5.86065 1.2226 4.89953 1.63097C3.46244 2.23572 2.24739 3.24883 1.38415 4.52544C0.955115 5.16152 0.61435 5.86921 0.376583 6.61884C0.143934 7.37372 0.0197754 8.16979 0.0197754 8.99714C0.0197754 10.0981 0.241875 11.1526 0.645249 12.1087C1.25499 13.5509 2.26811 14.7659 3.53972 15.6291C4.1808 16.0582 4.88399 16.3989 5.63862 16.6367C6.38819 16.8694 7.18932 16.9935 8.01617 16.9935C9.07573 16.9935 10.0944 16.7865 11.0247 16.4095C11.95 16.0319 12.7874 15.4842 13.5007 14.8174L13.5057 14.8123C13.7178 14.6159 13.9142 14.3984 14.1211 14.1606C14.4775 13.7522 14.8444 13.2823 15.2013 12.8067C15.2735 12.7083 15.3513 12.6098 15.4234 12.5119C15.6198 12.2378 18.1892 8.46955 18.4007 8.16467C18.4477 8.09751 18.4992 8.02535 18.5506 7.95269C18.9025 7.45643 19.2952 6.92396 19.6571 6.45904C19.8378 6.22633 20.019 6.00922 20.174 5.82851C20.3341 5.64224 20.479 5.4923 20.5824 5.39392C21.0266 4.97544 21.5491 4.63923 22.1225 4.40153C22.2624 4.34498 22.4017 4.2986 22.5465 4.25159C23.0013 4.11738 23.4819 4.04516 23.9837 4.0401C24.6711 4.0451 25.3224 4.17943 25.9114 4.4328C26.8004 4.80484 27.5606 5.43531 28.0926 6.22633C28.3617 6.62458 28.5737 7.05873 28.718 7.52359C28.8629 7.98902 28.9406 8.48016 28.9406 8.99708C28.9406 9.6846 28.8008 10.3358 28.553 10.9249C28.1754 11.8138 27.5449 12.574 26.7539 13.106C26.3562 13.3751 25.9221 13.5871 25.4567 13.7265C24.9968 13.8713 24.5006 13.9542 23.9837 13.9542C23.3219 13.9542 22.6964 13.825 22.1225 13.5923C21.549 13.3595 21.0265 13.0183 20.5823 12.5998C20.4788 12.5014 20.3339 12.3464 20.174 12.1657C19.8948 11.8452 19.5637 11.4211 19.233 10.982C19.0988 10.8063 18.9695 10.6251 18.8403 10.4443C18.7989 10.5064 18.7575 10.5686 18.7111 10.6357C17.858 11.8866 17.3204 12.6775 17.0261 13.1061C17.1033 13.2096 17.181 13.308 17.2583 13.4115C17.4653 13.675 17.6722 13.9285 17.8786 14.1606C18.0805 14.3983 18.282 14.6159 18.494 14.8123C19.2072 15.4842 20.0497 16.0319 20.975 16.4095C21.9054 16.7865 22.9235 16.9935 23.9836 16.9935C25.0845 16.9935 26.1391 16.7714 27.0951 16.3681C28.5373 15.7583 29.7518 14.7452 30.6155 13.4681C31.0441 12.8326 31.3909 12.1294 31.6231 11.3747C31.8559 10.6251 31.9801 9.82399 31.9801 8.99714C31.9801 7.8962 31.758 6.84169 31.3547 5.88513Z" fill="#13F195"/>
</svg>
