<svg width="24" height="24" viewBox="0 0 24 24" fill="none" xmlns="http://www.w3.org/2000/svg">
<g clip-path="url(#clip0_10006_40046)">
<path d="M0 8.53333C0 5.54639 0 4.05291 0.581299 2.91205C1.09262 1.90852 1.90852 1.09262 2.91205 0.581299C4.05291 0 5.54639 0 8.53333 0H15.4667C18.4536 0 19.9471 0 21.088 0.581299C22.0915 1.09262 22.9074 1.90852 23.4187 2.91205C24 4.05291 24 5.54639 24 8.53333V15.4667C24 18.4536 24 19.9471 23.4187 21.088C22.9074 22.0915 22.0915 22.9074 21.088 23.4187C19.9471 24 18.4536 24 15.4667 24H8.53333C5.54639 24 4.05291 24 2.91205 23.4187C1.90852 22.9074 1.09262 22.0915 0.581299 21.088C0 19.9471 0 18.4536 0 15.4667V8.53333Z" fill="white"/>
<path d="M16.5384 6.39209L12.0481 9.89641L7.45508 6.39209V6.39304L7.46063 6.39777V11.3048L11.9963 14.8848L16.5384 11.443V6.39209Z" fill="#EA4335"/>
<path d="M17.7173 5.53979L16.5381 6.39219V11.4431L20.2487 8.59423V6.87806C20.2487 6.87806 19.7983 4.42693 17.7173 5.53979Z" fill="#FBBC05"/>
<path d="M16.5381 11.4432V17.9943H19.3821C19.3821 17.9943 20.1914 17.911 20.2497 16.9885V8.59424L16.5381 11.4432Z" fill="#34A853"/>
<path d="M7.46084 17.9999V11.3048L7.45508 11.3L7.46084 17.9999Z" fill="#C5221F"/>
<path d="M7.4551 6.39315L6.28234 5.54549C4.20135 4.43263 3.75 6.88281 3.75 6.88281V8.59898L7.4551 11.3001V6.39315Z" fill="#C5221F"/>
<path d="M7.45508 6.39307V11.3001L7.46084 11.3048V6.3978L7.45508 6.39307Z" fill="#C5221F"/>
<path d="M3.75 8.59985V16.9941C3.80734 17.9175 4.61754 17.9999 4.61754 17.9999H7.46158L7.4551 11.3001L3.75 8.59985Z" fill="#4285F4"/>
</g>
<defs>
<clipPath id="clip0_10006_40046">
<rect width="24" height="24" fill="white"/>
</clipPath>
</defs>
</svg>
