<svg width="18" height="18" viewBox="0 0 18 18" fill="none" xmlns="http://www.w3.org/2000/svg">
<path d="M8.99996 0.666626C4.39996 0.666626 0.666626 4.39996 0.666626 8.99996C0.666626 13.6 4.39996 17.3333 8.99996 17.3333C13.6 17.3333 17.3333 13.6 17.3333 8.99996C17.3333 4.39996 13.6 0.666626 8.99996 0.666626ZM2.33329 8.99996C2.33329 8.49163 2.39996 7.99163 2.50829 7.51663L6.49163 11.5V12.3333C6.49163 13.25 7.24163 14 8.15829 14V15.6083C4.88329 15.1916 2.33329 12.3916 2.33329 8.99996ZM13.9083 13.5C13.6916 12.825 13.075 12.3333 12.325 12.3333H11.4916V9.83329C11.4916 9.37496 11.1166 8.99996 10.6583 8.99996H5.65829V7.33329H7.32496C7.78329 7.33329 8.15829 6.95829 8.15829 6.49996V4.83329H9.82496C10.7416 4.83329 11.4916 4.08329 11.4916 3.16663V2.82496C13.9333 3.80829 15.6666 6.20829 15.6666 8.99996C15.6666 10.7333 14.9916 12.3166 13.9083 13.5Z" fill="#13F195"/>
</svg>
