<svg width="64" height="13" viewBox="0 0 64 13" fill="none" xmlns="http://www.w3.org/2000/svg">
<path d="M61.7578 9.04688C61.7578 8.82812 61.724 8.63281 61.6562 8.46094C61.5938 8.28385 61.4766 8.125 61.3047 7.98438C61.138 7.83854 60.901 7.69792 60.5938 7.5625C60.2917 7.42188 59.901 7.27604 59.4219 7.125C58.8906 6.95833 58.3958 6.77083 57.9375 6.5625C57.4792 6.35417 57.0755 6.11198 56.7266 5.83594C56.3828 5.5599 56.1146 5.24219 55.9219 4.88281C55.7292 4.51823 55.6328 4.09635 55.6328 3.61719C55.6328 3.14844 55.7318 2.72135 55.9297 2.33594C56.1328 1.95052 56.4193 1.61979 56.7891 1.34375C57.1589 1.0625 57.5938 0.846354 58.0938 0.695312C58.599 0.544271 59.1562 0.46875 59.7656 0.46875C60.6094 0.46875 61.3385 0.622396 61.9531 0.929688C62.5729 1.23698 63.0521 1.65365 63.3906 2.17969C63.7292 2.70573 63.8984 3.29688 63.8984 3.95312H61.7578C61.7578 3.59896 61.6823 3.28646 61.5312 3.01562C61.3854 2.74479 61.1615 2.53125 60.8594 2.375C60.5625 2.21875 60.1875 2.14062 59.7344 2.14062C59.2969 2.14062 58.9323 2.20573 58.6406 2.33594C58.3542 2.46615 58.138 2.64323 57.9922 2.86719C57.8516 3.09115 57.7812 3.34115 57.7812 3.61719C57.7812 3.82552 57.8307 4.01302 57.9297 4.17969C58.0286 4.34115 58.1771 4.49479 58.375 4.64062C58.5729 4.78125 58.8177 4.91406 59.1094 5.03906C59.4062 5.15885 59.75 5.27865 60.1406 5.39844C60.7656 5.58594 61.3125 5.79427 61.7812 6.02344C62.2552 6.2526 62.6484 6.51302 62.9609 6.80469C63.2786 7.09635 63.5156 7.42448 63.6719 7.78906C63.8333 8.15365 63.9141 8.56771 63.9141 9.03125C63.9141 9.52083 63.8177 9.95833 63.625 10.3438C63.4323 10.7292 63.1562 11.0573 62.7969 11.3281C62.4375 11.599 62.0052 11.8047 61.5 11.9453C61 12.0859 60.4401 12.1562 59.8203 12.1562C59.2682 12.1562 58.7214 12.0833 58.1797 11.9375C57.6432 11.7865 57.1562 11.5625 56.7188 11.2656C56.2812 10.9635 55.9323 10.5833 55.6719 10.125C55.4115 9.66146 55.2812 9.11979 55.2812 8.5H57.4375C57.4375 8.85938 57.4948 9.16667 57.6094 9.42188C57.7292 9.67188 57.8958 9.8776 58.1094 10.0391C58.3281 10.1953 58.5833 10.3099 58.875 10.3828C59.1667 10.4557 59.4818 10.4922 59.8203 10.4922C60.2578 10.4922 60.6172 10.4323 60.8984 10.3125C61.1849 10.1875 61.3984 10.0156 61.5391 9.79688C61.6849 9.57812 61.7578 9.32812 61.7578 9.04688Z" fill="white"/>
<path d="M49.9141 7.85156H46.9844V6.16406H49.9141C50.3932 6.16406 50.7812 6.08594 51.0781 5.92969C51.3802 5.76823 51.6016 5.54948 51.7422 5.27344C51.8828 4.99219 51.9531 4.67188 51.9531 4.3125C51.9531 3.96354 51.8828 3.63802 51.7422 3.33594C51.6016 3.03385 51.3802 2.78906 51.0781 2.60156C50.7812 2.41406 50.3932 2.32031 49.9141 2.32031H47.6875V12H45.5391V0.625H49.9141C50.7995 0.625 51.5547 0.783854 52.1797 1.10156C52.8099 1.41406 53.2891 1.84896 53.6172 2.40625C53.9505 2.95833 54.1172 3.58854 54.1172 4.29688C54.1172 5.03125 53.9505 5.66406 53.6172 6.19531C53.2891 6.72656 52.8099 7.13542 52.1797 7.42188C51.5547 7.70833 50.7995 7.85156 49.9141 7.85156Z" fill="white"/>
<path d="M41.3516 0.625H43.5V8.17969C43.5 9.04948 43.3125 9.78125 42.9375 10.375C42.5625 10.9635 42.0521 11.4089 41.4062 11.7109C40.7604 12.0078 40.026 12.1562 39.2031 12.1562C38.3698 12.1562 37.6276 12.0078 36.9766 11.7109C36.3255 11.4089 35.8151 10.9635 35.4453 10.375C35.0755 9.78125 34.8906 9.04948 34.8906 8.17969V0.625H37.0391V8.17969C37.0391 8.71094 37.1276 9.14583 37.3047 9.48438C37.4818 9.81771 37.7318 10.0651 38.0547 10.2266C38.3776 10.388 38.7604 10.4688 39.2031 10.4688C39.651 10.4688 40.0339 10.388 40.3516 10.2266C40.6745 10.0651 40.9219 9.81771 41.0938 9.48438C41.2656 9.14583 41.3516 8.71094 41.3516 8.17969V0.625Z" fill="white"/>
<path d="M21.9609 0.625H23.8203L26.9297 9.1875L30.0312 0.625H31.8984L27.6719 12H26.1797L21.9609 0.625ZM21.0234 0.625H22.8438L23.1719 8.49219V12H21.0234V0.625ZM31.0078 0.625H32.8359V12H30.6875V8.49219L31.0078 0.625Z" fill="#13F195"/>
<path d="M19.5312 10.3125V12H13.4844V10.3125H19.5312ZM14.1406 0.625V12H11.9922V0.625H14.1406ZM18.7422 5.32031V6.96875H13.4844V5.32031H18.7422ZM19.5078 0.625V2.32031H13.4844V0.625H19.5078Z" fill="#13F195"/>
<path d="M9.96094 6.11719V10.5469C9.79427 10.7604 9.53125 10.9922 9.17188 11.2422C8.81771 11.4922 8.35417 11.7083 7.78125 11.8906C7.20833 12.0677 6.50521 12.1562 5.67188 12.1562C4.94792 12.1562 4.28646 12.0365 3.6875 11.7969C3.08854 11.5521 2.57292 11.1953 2.14062 10.7266C1.70833 10.2578 1.375 9.6849 1.14062 9.00781C0.90625 8.33073 0.789062 7.55729 0.789062 6.6875V5.9375C0.789062 5.06771 0.898438 4.29427 1.11719 3.61719C1.34115 2.9401 1.65885 2.36719 2.07031 1.89844C2.48698 1.42969 2.98438 1.07292 3.5625 0.828125C4.14583 0.583333 4.79688 0.460938 5.51562 0.460938C6.47917 0.460938 7.27083 0.619792 7.89062 0.9375C8.51562 1.25521 8.99479 1.69271 9.32812 2.25C9.66146 2.80208 9.86979 3.4375 9.95312 4.15625H7.85938C7.80208 3.76042 7.6875 3.41406 7.51562 3.11719C7.34375 2.8151 7.09896 2.58073 6.78125 2.41406C6.46875 2.24219 6.0625 2.15625 5.5625 2.15625C5.14062 2.15625 4.76823 2.23958 4.44531 2.40625C4.1224 2.57292 3.85156 2.8151 3.63281 3.13281C3.41406 3.45052 3.2474 3.84375 3.13281 4.3125C3.02344 4.78125 2.96875 5.31771 2.96875 5.92188V6.6875C2.96875 7.29688 3.03125 7.83854 3.15625 8.3125C3.28125 8.78125 3.46094 9.17708 3.69531 9.5C3.9349 9.81771 4.22917 10.0599 4.57812 10.2266C4.93229 10.388 5.33333 10.4688 5.78125 10.4688C6.1875 10.4688 6.52344 10.4349 6.78906 10.3672C7.0599 10.2943 7.27604 10.2083 7.4375 10.1094C7.59896 10.0104 7.72396 9.91406 7.8125 9.82031V7.6875H5.55469V6.11719H9.96094Z" fill="#13F195"/>
</svg>
